<svg width="24.000000" height="24.000000" viewBox="0 0 24 24" fill="none" xmlns="http://www.w3.org/2000/svg" xmlns:xlink="http://www.w3.org/1999/xlink">
	<desc>
			Created with Pixso.
	</desc>
	<defs>
		<clipPath id="clip13_2378">
			<rect id="Frame" rx="0.000000" width="23.000000" height="23.000000" transform="translate(0.500000 0.500000)" fill="white" fill-opacity="0"/>
		</clipPath>
	</defs>
	<rect id="Frame" rx="0.000000" width="23.000000" height="23.000000" transform="translate(0.500000 0.500000)" fill="#FFFFFF" fill-opacity="0"/>
	<g clip-path="url(#clip13_2378)">
		<path id="Vector" d="M4.58 20.41C4.96 20.78 5.46 21 6 21C6.53 21 7.03 20.78 7.41 20.41C7.78 20.03 8 19.53 8 19C8 18.46 7.78 17.96 7.41 17.58C7.03 17.21 6.53 17 6 17C5.46 17 4.96 17.21 4.58 17.58C4.21 17.96 4 18.46 4 19C4 19.53 4.21 20.03 4.58 20.41Z" stroke="#FFFFFF" stroke-opacity="1.000000" stroke-width="1.500000" stroke-linejoin="round"/>
		<path id="Vector" d="M15.58 20.41C15.96 20.78 16.46 21 17 21C17.53 21 18.03 20.78 18.41 20.41C18.78 20.03 19 19.53 19 19C19 18.46 18.78 17.96 18.41 17.58C18.03 17.21 17.53 17 17 17C16.46 17 15.96 17.21 15.58 17.58C15.21 17.96 15 18.46 15 19C15 19.53 15.21 20.03 15.58 20.41Z" stroke="#FFFFFF" stroke-opacity="1.000000" stroke-width="1.500000" stroke-linejoin="round"/>
		<path id="Vector" d="M17 17L6 17L6 3L4 3" stroke="#FFFFFF" stroke-opacity="1.000000" stroke-width="1.500000" stroke-linejoin="round" stroke-linecap="round"/>
		<path id="Vector" d="M6 5L20 6L19 13L6 13" stroke="#FFFFFF" stroke-opacity="1.000000" stroke-width="1.500000" stroke-linejoin="round" stroke-linecap="round"/>
	</g>
</svg>
