<svg width="20.000000" height="20.000000" viewBox="0 0 20 20" fill="none" xmlns="http://www.w3.org/2000/svg" xmlns:xlink="http://www.w3.org/1999/xlink">
	<desc>
			Created with Pixso.
	</desc>
	<defs>
		<clipPath id="clip13_2151">
			<rect id="Frame" rx="0.000000" width="19.000000" height="19.000000" transform="translate(0.500000 0.500000)" fill="white" fill-opacity="0"/>
		</clipPath>
	</defs>
	<rect id="Frame" rx="0.000000" width="19.000000" height="19.000000" transform="translate(0.500000 0.500000)" fill="#FFFFFF" fill-opacity="0"/>
	<g clip-path="url(#clip13_2151)">
		<path id="Vector" d="M3.82 17.01C4.13 17.32 4.55 17.5 5 17.5C5.44 17.5 5.86 17.32 6.17 17.01C6.49 16.69 6.66 16.27 6.66 15.83C6.66 15.39 6.49 14.96 6.17 14.65C5.86 14.34 5.44 14.16 5 14.16C4.55 14.16 4.13 14.34 3.82 14.65C3.5 14.96 3.33 15.39 3.33 15.83C3.33 16.27 3.5 16.69 3.82 17.01Z" stroke="#3A3A3A" stroke-opacity="1.000000" stroke-width="1.500000" stroke-linejoin="round"/>
		<path id="Vector" d="M12.98 17.01C13.3 17.32 13.72 17.5 14.16 17.5C14.6 17.5 15.03 17.32 15.34 17.01C15.65 16.69 15.83 16.27 15.83 15.83C15.83 15.39 15.65 14.96 15.34 14.65C15.03 14.34 14.6 14.16 14.16 14.16C13.72 14.16 13.3 14.34 12.98 14.65C12.67 14.96 12.5 15.39 12.5 15.83C12.5 16.27 12.67 16.69 12.98 17.01Z" stroke="#3A3A3A" stroke-opacity="1.000000" stroke-width="1.500000" stroke-linejoin="round"/>
		<path id="Vector" d="M14.16 14.16L5 14.16L5 2.5L3.33 2.5" stroke="#3A3A3A" stroke-opacity="1.000000" stroke-width="1.500000" stroke-linejoin="round" stroke-linecap="round"/>
		<path id="Vector" d="M5 4.16L16.66 4.99L15.83 10.83L5 10.83" stroke="#3A3A3A" stroke-opacity="1.000000" stroke-width="1.500000" stroke-linejoin="round" stroke-linecap="round"/>
	</g>
</svg>
