<svg width="21.972168" height="20.993530" viewBox="0 0 21.9722 20.9935" fill="none" xmlns="http://www.w3.org/2000/svg" xmlns:xlink="http://www.w3.org/1999/xlink">
	<desc>
			Created with Pixso.
	</desc>
	<defs/>
	<path id="Vector" d="M7.23 6.33L0.85 7.26L0.74 7.28C0.57 7.33 0.41 7.42 0.29 7.54C0.16 7.67 0.07 7.82 0.03 7.99C-0.02 8.17 -0.02 8.35 0.03 8.52C0.08 8.69 0.17 8.84 0.3 8.96L4.92 13.46L3.83 19.82L3.82 19.93C3.81 20.11 3.84 20.28 3.92 20.44C4 20.6 4.12 20.73 4.27 20.83C4.42 20.92 4.59 20.98 4.77 20.99C4.95 20.99 5.12 20.96 5.28 20.87L10.99 17.87L16.68 20.87L16.78 20.92C16.95 20.98 17.12 21 17.3 20.98C17.48 20.95 17.64 20.88 17.78 20.76C17.92 20.65 18.02 20.51 18.08 20.34C18.15 20.17 18.16 19.99 18.13 19.82L17.04 13.46L21.67 8.96L21.74 8.88C21.85 8.74 21.93 8.58 21.96 8.4C21.98 8.23 21.96 8.05 21.9 7.88C21.83 7.72 21.73 7.58 21.59 7.47C21.45 7.36 21.29 7.28 21.11 7.26L14.73 6.33L11.88 0.55C11.8 0.39 11.67 0.24 11.51 0.15C11.35 0.05 11.17 0 10.98 0C10.79 0 10.61 0.05 10.45 0.15C10.29 0.24 10.17 0.39 10.08 0.55L7.23 6.33Z" fill="#F9C004" fill-opacity="1.000000" fill-rule="nonzero"/>
</svg>
