<svg width="20.000000" height="20.000000" viewBox="0 0 20 20" fill="none" xmlns="http://www.w3.org/2000/svg" xmlns:xlink="http://www.w3.org/1999/xlink">
	<desc>
			Created with Pixso.
	</desc>
	<defs>
		<clipPath id="clip13_2159">
			<rect id="Frame" rx="0.000000" width="19.000000" height="19.000000" transform="translate(0.500000 0.500000)" fill="white" fill-opacity="0"/>
		</clipPath>
	</defs>
	<rect id="Frame" rx="0.000000" width="19.000000" height="19.000000" transform="translate(0.500000 0.500000)" fill="#FFFFFF" fill-opacity="0"/>
	<g clip-path="url(#clip13_2159)">
		<path id="Vector" d="M16.25 10.47L10 16.66L3.75 10.47C3.33 10.07 3.01 9.59 2.79 9.06C2.57 8.52 2.47 7.95 2.49 7.38C2.5 6.8 2.63 6.24 2.88 5.71C3.12 5.19 3.47 4.73 3.91 4.35C4.34 3.97 4.85 3.69 5.39 3.51C5.94 3.34 6.52 3.28 7.09 3.34C7.66 3.4 8.22 3.58 8.72 3.87C9.22 4.15 9.65 4.54 10 5C10.34 4.54 10.78 4.16 11.27 3.88C11.77 3.59 12.33 3.42 12.9 3.36C13.47 3.3 14.04 3.36 14.59 3.53C15.14 3.71 15.64 3.99 16.07 4.37C16.5 4.75 16.85 5.21 17.1 5.73C17.34 6.25 17.47 6.81 17.49 7.39C17.51 7.96 17.4 8.53 17.19 9.06C16.98 9.59 16.65 10.07 16.25 10.48" stroke="#3A3A3A" stroke-opacity="1.000000" stroke-width="1.500000" stroke-linejoin="round" stroke-linecap="round"/>
	</g>
</svg>
